<?xml version="1.0" encoding="UTF-8"?>
<svg xmlns="http://www.w3.org/2000/svg" viewBox="0 0 1200 1980" font-family="Inter, system-ui, Arial, sans-serif">
  <defs>
    <style><![CDATA[
      .bg { fill: #faf7f2; }
      .title { font-family: Georgia, "Playfair Display", serif; font-size: 30px; fill: #3d3833; }
      .subtitle { font-size: 18px; font-weight: 600; fill: #3d3833; letter-spacing: 1px; }
      .area-label { font-style: italic; fill: #6b8780; font-size: 14px; }
      .area-label-big { font-style: italic; fill: #6b8780; font-size: 16px; font-weight: 600; }
      .room { stroke: #3d3833; stroke-width: 1.5; }
      .outline { fill: none; stroke: #3d3833; stroke-width: 3; }
      .courtyard-outline { fill: none; stroke: #87a396; stroke-width: 2; stroke-dasharray: 8 4; }
      .label { fill: #3d3833; font-size: 12px; text-anchor: middle; }
      .label-bold { font-weight: 600; }
      .label-sub { font-size: 9px; fill: #5a534b; }
      .door { stroke: #c9a9a6; stroke-width: 4; fill: none; stroke-linecap: round; }
      .stair-line { stroke: #3d3833; stroke-width: 0.7; }
      .compass-circle { fill: white; stroke: #3d3833; stroke-width: 1.2; }
      .compass-text { font-size: 11px; font-weight: 600; text-anchor: middle; fill: #3d3833; }
      .legend-text { font-size: 12px; fill: #3d3833; }
      .legend-title { font-size: 13px; font-weight: 600; fill: #3d3833; }
      /* Room types */
      .bedroom { fill: #ead6ce; }
      .common { fill: #cfe0d4; }
      .service { fill: #d8e1ec; }
      .bar { fill: #ecd9b7; }
      .sauna { fill: #e8c5a7; }
      .corridor { fill: #ece5d6; }
      .stair { fill: #c5bdac; }
      /* Outdoor */
      .altar { fill: #e3d5c2; stroke: #8a7559; stroke-width: 1.5; }
      .cellar { fill: #c4b9a8; stroke: #6b5f4b; stroke-width: 1.5; }
      .path { fill: #f0eadd; stroke: #b8a98a; stroke-width: 1; stroke-dasharray: 3 3; }
      .meadow { fill: #d9e8d2; stroke: #6e8f5f; stroke-width: 1; stroke-dasharray: 4 3; }
    ]]></style>

    <!-- Spiral staircase symbol -->
    <symbol id="spiral-stair" viewBox="-20 -20 40 40">
      <circle r="16" class="room stair"/>
      <line x1="0" y1="0" x2="0" y2="-16" class="stair-line"/>
      <line x1="0" y1="0" x2="12" y2="-10" class="stair-line"/>
      <line x1="0" y1="0" x2="16" y2="0" class="stair-line"/>
      <line x1="0" y1="0" x2="12" y2="10" class="stair-line"/>
      <line x1="0" y1="0" x2="0" y2="16" class="stair-line"/>
      <line x1="0" y1="0" x2="-12" y2="10" class="stair-line"/>
      <line x1="0" y1="0" x2="-16" y2="0" class="stair-line"/>
      <line x1="0" y1="0" x2="-12" y2="-10" class="stair-line"/>
      <text y="3" text-anchor="middle" font-size="10" font-weight="600">↑</text>
    </symbol>

    <!-- Straight staircase symbol -->
    <symbol id="straight-stair" viewBox="0 0 40 60">
      <rect width="40" height="60" class="room stair"/>
      <line x1="0" y1="10" x2="40" y2="10" class="stair-line"/>
      <line x1="0" y1="20" x2="40" y2="20" class="stair-line"/>
      <line x1="0" y1="30" x2="40" y2="30" class="stair-line"/>
      <line x1="0" y1="40" x2="40" y2="40" class="stair-line"/>
      <line x1="0" y1="50" x2="40" y2="50" class="stair-line"/>
      <text x="20" y="35" text-anchor="middle" font-size="14" font-weight="600">↑</text>
    </symbol>

    <!-- Altar steps decoration -->
    <symbol id="altar-steps" viewBox="0 0 100 60">
      <rect x="10" y="50" width="80" height="6" fill="#8a7559"/>
      <rect x="20" y="40" width="60" height="6" fill="#8a7559"/>
      <rect x="30" y="30" width="40" height="6" fill="#8a7559"/>
      <text x="50" y="22" text-anchor="middle" font-size="14">⛪</text>
    </symbol>
  </defs>

  <!-- Background -->
  <rect class="bg" width="1200" height="1980"/>

  <!-- Header -->
  <text class="title" x="600" y="55" text-anchor="middle">Resort Počepice — plánek</text>
  <text x="600" y="82" text-anchor="middle" font-style="italic" fill="#87a396" font-size="14">konečně-ano.cz</text>

  <!-- ============================================ -->
  <!-- FLOOR 1 — PŘÍZEMÍ                            -->
  <!-- ============================================ -->
  <g transform="translate(0, 110)">
    <text class="subtitle" x="600" y="22" text-anchor="middle">PŘÍZEMÍ (1. NP)</text>

    <!-- Compass -->
    <g transform="translate(1080, 60)">
      <circle r="22" class="compass-circle"/>
      <text class="compass-text" y="-9">S</text>
      <text class="compass-text" y="18">J</text>
      <text class="compass-text" x="-12" y="4">Z</text>
      <text class="compass-text" x="12" y="4">V</text>
      <text class="compass-text" y="3" font-size="9" fill="#c9a9a6">✦</text>
    </g>

    <!-- Plan -->
    <g transform="translate(170, 40)">

      <!-- ============================ -->
      <!-- COURTYARD (Vnitřní dvůr)     -->
      <!-- Enclosed rectangle           -->
      <!-- ============================ -->

      <!-- Courtyard outline -->
      <rect x="80" y="100" width="500" height="300" class="courtyard-outline"/>

      <!-- Meadow access strip (top) -->
      <rect x="80" y="100" width="500" height="40" class="meadow"/>
      <text x="330" y="125" text-anchor="middle" font-size="11" font-weight="600" fill="#6e8f5f">↑ Louka — chill zóna · ohniště · dětské hřiště</text>

      <!-- Altar elevated -->
      <rect x="80" y="180" width="160" height="220" class="altar"/>
      <use href="#altar-steps" x="100" y="285" width="120" height="60"/>
      <text x="160" y="220" text-anchor="middle" font-size="13" font-weight="600" fill="#3d3833">Oltář</text>
      <text x="160" y="236" text-anchor="middle" font-size="9" fill="#5a534b" font-style="italic">vyvýšené patro</text>

      <!-- Cellar -->
      <rect x="240" y="180" width="180" height="220" class="cellar"/>
      <text x="330" y="280" text-anchor="middle" font-size="13" font-weight="600" fill="#3d3833">Sklep</text>
      <text x="330" y="296" text-anchor="middle" font-size="9" fill="#5a534b">↓ pod úrovní</text>

      <!-- Path north-south (alongside sauna, leading to meadow) -->
      <rect x="420" y="140" width="160" height="260" class="path"/>
      <text x="500" y="270" text-anchor="middle" font-size="10" fill="#7c6e4f" font-style="italic">cesta k louce</text>
      <text x="500" y="284" text-anchor="middle" font-size="9" fill="#7c6e4f">↑</text>

      <!-- ============================ -->
      <!-- BUILDING                     -->
      <!-- L-shape, narrower long arm   -->
      <!-- Long arm: 80..780 × 400..650 -->
      <!-- Short arm: 580..780 × 100..400 -->
      <!-- ============================ -->

      <path class="outline" d="M 80,400 L 80,650 L 780,650 L 780,100 L 580,100 L 580,400 Z"/>

      <!-- Front yard label -->
      <text class="area-label" x="430" y="700" text-anchor="middle">Přední zahrada</text>

      <!-- ============================ -->
      <!-- LONG ARM — WEST              -->
      <!-- ============================ -->

      <!-- Stair shaft (3rd stair → courtyard) -->
      <rect class="room stair" x="80" y="400" width="50" height="110"/>
      <use href="#straight-stair" x="85" y="425" width="40" height="60"/>
      <text class="label label-sub" x="105" y="403" transform="rotate(-90, 105, 403)">↓ dvůr</text>

      <!-- Bezbariérová ložnice (full west, reaches front) -->
      <rect class="room bedroom" x="130" y="400" width="100" height="250"/>
      <text class="label label-bold" x="180" y="490">Bezbariérová</text>
      <text class="label label-bold" x="180" y="505">ložnice</text>
      <text class="label label-sub" x="180" y="522">♿ vstup ze dvora</text>

      <!-- GP apartment (passage, barrier-free) -->
      <rect class="room bedroom" x="230" y="400" width="240" height="140"/>
      <line x1="350" y1="400" x2="350" y2="540" class="room" stroke-dasharray="4 3" stroke="#3d3833" stroke-width="1"/>
      <text class="label label-bold" x="290" y="465">Apartmá</text>
      <text class="label label-bold" x="290" y="480">prarodičů</text>
      <text class="label label-sub" x="290" y="498">♿ průchozí pokoj</text>
      <text class="label label-bold" x="410" y="475">ložnice</text>

      <!-- Newlywed apartment (same width as GP, doesn't reach end of L) -->
      <rect class="room bedroom" x="230" y="540" width="240" height="110"/>
      <text class="label label-bold" x="350" y="595">Novomanželské apartmá ✦</text>
      <text class="label label-sub" x="350" y="611">samostatný vstup z chodby</text>

      <!-- ============================ -->
      <!-- CORRIDOR (Průchod)           -->
      <!-- ============================ -->
      <rect class="room corridor" x="470" y="400" width="80" height="250"/>
      <text class="label label-bold" x="510" y="450" transform="rotate(-90, 510, 450)">Průchod</text>
      <use href="#straight-stair" x="488" y="555" width="40" height="60"/>
      <text class="label label-sub" x="510" y="630" text-anchor="middle">↑ patro</text>

      <!-- ============================ -->
      <!-- LONG ARM — EAST = SÁL        -->
      <!-- ============================ -->
      <rect class="room common" x="550" y="400" width="230" height="250"/>
      <text class="label label-bold" x="665" y="510" font-size="15">Stolovací</text>
      <text class="label label-bold" x="665" y="528" font-size="15">a taneční sál</text>
      <text class="label label-sub" x="665" y="548">celé pravé křídlo</text>

      <!-- ============================ -->
      <!-- SHORT ARM                    -->
      <!-- Order S→N: Jídelna, Bar, Sauna   -->
      <!-- Kitchen along east column        -->
      <!-- ============================ -->

      <!-- Jídelna (south, closer to long arm) -->
      <rect class="room common" x="580" y="280" width="100" height="120"/>
      <text class="label label-bold" x="630" y="335">Jídelna</text>
      <text class="label label-sub" x="630" y="352">malá</text>

      <!-- Bar (middle, with spiral stair in SE corner) -->
      <rect class="room bar" x="580" y="170" width="100" height="110"/>
      <text class="label label-bold" x="615" y="200">Bar</text>
      <text class="label label-sub" x="615" y="216">s výčepem</text>
      <use href="#spiral-stair" x="650" y="248" width="30" height="30"/>
      <text class="label label-sub" x="630" y="270">SE: točité ↑</text>

      <!-- Sauna (north tip) -->
      <rect class="room sauna" x="580" y="100" width="200" height="70"/>
      <text class="label label-bold" x="680" y="135">Sauna</text>
      <text class="label label-sub" x="680" y="152">vstup NW (ze dvora)</text>

      <!-- Kitchen (east column, alongside Jídelna+Bar) -->
      <rect class="room service" x="680" y="170" width="100" height="230"/>
      <text class="label label-bold" x="730" y="285">Kuchyň</text>

      <!-- ============================ -->
      <!-- DOORS                        -->
      <!-- ============================ -->

      <!-- Front entrance (corridor → front yard) -->
      <line x1="490" y1="650" x2="530" y2="650" class="door"/>
      <text class="label label-sub" x="510" y="668" text-anchor="middle">vchod</text>

      <!-- Corridor → courtyard -->
      <line x1="490" y1="400" x2="530" y2="400" class="door"/>

      <!-- Stair shaft → courtyard -->
      <line x1="90" y1="400" x2="120" y2="400" class="door"/>

      <!-- BB bedroom → courtyard -->
      <line x1="155" y1="400" x2="195" y2="400" class="door"/>

      <!-- Sauna entrance NW (upper-left) -->
      <line x1="580" y1="110" x2="580" y2="140" class="door"/>

      <!-- Jídelna SW corner door (to sál at south wall, near west) -->
      <line x1="585" y1="400" x2="615" y2="400" class="door"/>

      <!-- Bar to jídelna (internal, north-south) -->
      <line x1="610" y1="280" x2="640" y2="280" class="door"/>

      <!-- Bar to sauna -->
      <line x1="610" y1="170" x2="640" y2="170" class="door"/>

      <!-- Bar to kitchen -->
      <line x1="680" y1="210" x2="680" y2="240" class="door"/>

      <!-- Jídelna to kitchen -->
      <line x1="680" y1="320" x2="680" y2="350" class="door"/>

      <!-- Sál to corridor -->
      <line x1="550" y1="510" x2="550" y2="555" class="door"/>

      <!-- Newlywed → corridor -->
      <line x1="470" y1="580" x2="470" y2="615" class="door"/>

      <!-- GP → corridor -->
      <line x1="470" y1="450" x2="470" y2="485" class="door"/>
    </g>
  </g>

  <!-- ============================================ -->
  <!-- FLOOR 2 — 1. PATRO                           -->
  <!-- ============================================ -->
  <g transform="translate(0, 1010)">
    <text class="subtitle" x="600" y="22" text-anchor="middle">1. PATRO (2. NP)</text>

    <!-- Compass -->
    <g transform="translate(1080, 60)">
      <circle r="22" class="compass-circle"/>
      <text class="compass-text" y="-9">S</text>
      <text class="compass-text" y="18">J</text>
      <text class="compass-text" x="-12" y="4">Z</text>
      <text class="compass-text" x="12" y="4">V</text>
      <text class="compass-text" y="3" font-size="9" fill="#c9a9a6">✦</text>
    </g>

    <g transform="translate(170, 40)">

      <!-- Courtyard label (just outline, no details on 2NP) -->
      <rect x="80" y="100" width="500" height="300" class="courtyard-outline"/>
      <text class="area-label-big" x="330" y="260" text-anchor="middle">Vnitřní dvůr</text>
      <text class="area-label" x="330" y="280" text-anchor="middle">(otevřený, v přízemí)</text>
      <text class="area-label" x="430" y="700" text-anchor="middle">Přední zahrada</text>

      <!-- L-shape building outline -->
      <path class="outline" d="M 80,400 L 80,650 L 780,650 L 780,100 L 580,100 L 580,400 Z"/>

      <!-- ============================ -->
      <!-- LONG ARM — WEST              -->
      <!-- ============================ -->

      <!-- Stair shaft (3rd stair, going down to courtyard) -->
      <rect class="room stair" x="80" y="400" width="50" height="110"/>
      <use href="#straight-stair" x="85" y="425" width="40" height="60"/>
      <text class="label label-sub" x="105" y="403" transform="rotate(-90, 105, 403)">↓ dvůr</text>

      <!-- Connector between stair shaft and west corridor -->
      <rect class="room corridor" x="80" y="510" width="50" height="140"/>

      <!-- 3 bedrooms (north of west corridor) -->
      <rect class="room bedroom" x="130" y="400" width="113" height="180"/>
      <text class="label label-bold" x="186" y="485">Ložnice Z1</text>

      <rect class="room bedroom" x="243" y="400" width="114" height="180"/>
      <text class="label label-bold" x="300" y="485">Ložnice Z2</text>

      <rect class="room bedroom" x="357" y="400" width="113" height="180"/>
      <text class="label label-bold" x="413" y="485">Ložnice Z3</text>

      <!-- West corridor (along front / south wall) -->
      <rect class="room corridor" x="130" y="580" width="340" height="70"/>
      <text class="label label-sub" x="300" y="620" text-anchor="middle">Chodba podél přední stěny</text>

      <!-- ============================ -->
      <!-- CENTRAL STAIR LANDING        -->
      <!-- ============================ -->
      <rect class="room corridor" x="470" y="400" width="80" height="250"/>
      <use href="#straight-stair" x="488" y="555" width="40" height="60"/>
      <text class="label label-sub" x="510" y="450" text-anchor="middle">Chodba</text>
      <text class="label label-sub" x="510" y="464" text-anchor="middle">se schody</text>
      <text class="label label-sub" x="510" y="478" text-anchor="middle">z přízemí</text>

      <!-- ============================ -->
      <!-- LONG ARM — EAST              -->
      <!-- V1 (passage) + V2 (at end)   -->
      <!-- ============================ -->

      <rect class="room bedroom" x="550" y="400" width="115" height="250"/>
      <text class="label label-bold" x="608" y="510">Ložnice V1</text>
      <text class="label label-sub" x="608" y="527">průchozí</text>

      <rect class="room bedroom" x="665" y="400" width="115" height="250"/>
      <text class="label label-bold" x="722" y="510">Ložnice V2</text>
      <text class="label label-sub" x="722" y="527">na konci</text>

      <!-- ============================ -->
      <!-- SHORT ARM — KRÁTKÉ KŘÍDLO    -->
      <!-- 3 sekce: apt → chodba → apt -->
      <!-- ============================ -->

      <!-- South apartment (closer to long arm, over Jídelna 1NP) -->
      <rect class="room bedroom" x="580" y="280" width="200" height="120"/>
      <text class="label label-bold" x="680" y="335">Apartmá jih</text>
      <text class="label label-sub" x="680" y="352">v křídle</text>

      <!-- Middle corridor with spiral stair landing (over Bar 1NP) -->
      <rect class="room corridor" x="580" y="170" width="200" height="110"/>
      <text class="label label-sub" x="680" y="200" text-anchor="middle">Chodba</text>
      <text class="label label-sub" x="680" y="214" text-anchor="middle">v křídle</text>
      <use href="#spiral-stair" x="650" y="248" width="30" height="30"/>
      <text class="label label-sub" x="615" y="270">↓ z baru</text>

      <!-- North apartment (over Sauna 1NP) -->
      <rect class="room bedroom" x="580" y="100" width="200" height="70"/>
      <text class="label label-bold" x="680" y="130">Apartmá sever</text>
      <text class="label label-sub" x="680" y="148">v křídle</text>

      <!-- ============================ -->
      <!-- DOORS                        -->
      <!-- ============================ -->

      <!-- V1 ↔ central landing (middle of west wall of V1) -->
      <line x1="550" y1="515" x2="550" y2="540" class="door"/>

      <!-- V1 ↔ V2 (middle of east wall of V1) -->
      <line x1="665" y1="515" x2="665" y2="540" class="door"/>

      <!-- Z1, Z2, Z3 → west corridor (middle of each south wall) -->
      <line x1="176" y1="580" x2="196" y2="580" class="door"/>
      <line x1="290" y1="580" x2="310" y2="580" class="door"/>
      <line x1="403" y1="580" x2="423" y2="580" class="door"/>

      <!-- Stair shaft → courtyard -->
      <line x1="90" y1="400" x2="120" y2="400" class="door"/>

      <!-- Stair shaft ↔ west connector (already same color = open) -->

      <!-- South apt ↔ middle corridor (in short arm) -->
      <line x1="660" y1="280" x2="700" y2="280" class="door"/>

      <!-- Middle corridor ↔ north apt -->
      <line x1="660" y1="170" x2="700" y2="170" class="door"/>
    </g>
  </g>

  <!-- ============================================ -->
  <!-- LEGEND                                       -->
  <!-- ============================================ -->
  <g transform="translate(80, 1860)">
    <text class="legend-title" x="0" y="0">Legenda</text>

    <g transform="translate(0, 16)">
      <rect class="room bedroom" x="0" y="0" width="20" height="14"/>
      <text class="legend-text" x="28" y="11">Ložnice / apartmá</text>

      <rect class="room common" x="170" y="0" width="20" height="14"/>
      <text class="legend-text" x="198" y="11">Společné prostory (sál, jídelna)</text>

      <rect class="room service" x="430" y="0" width="20" height="14"/>
      <text class="legend-text" x="458" y="11">Kuchyň</text>

      <rect class="room bar" x="540" y="0" width="20" height="14"/>
      <text class="legend-text" x="568" y="11">Bar</text>

      <rect class="room sauna" x="620" y="0" width="20" height="14"/>
      <text class="legend-text" x="648" y="11">Sauna</text>

      <rect class="room corridor" x="710" y="0" width="20" height="14"/>
      <text class="legend-text" x="738" y="11">Chodba / průchod</text>

      <rect class="room stair" x="870" y="0" width="20" height="14"/>
      <text class="legend-text" x="898" y="11">Schodiště</text>
    </g>

    <g transform="translate(0, 38)">
      <rect class="altar" x="0" y="0" width="20" height="14"/>
      <text class="legend-text" x="28" y="11">Oltář (vyvýšené patro)</text>

      <rect class="cellar" x="170" y="0" width="20" height="14"/>
      <text class="legend-text" x="198" y="11">Sklep</text>

      <rect class="path" x="280" y="0" width="20" height="14"/>
      <text class="legend-text" x="308" y="11">Cesta</text>

      <rect class="meadow" x="370" y="0" width="20" height="14"/>
      <text class="legend-text" x="398" y="11">Louka / chill zóna</text>
    </g>
  </g>
</svg>
